<svg xmlns="http://www.w3.org/2000/svg" xmlns:xlink="http://www.w3.org/1999/xlink" width="1920" zoomAndPan="magnify" viewBox="0 0 1440 809.999993" height="1080" preserveAspectRatio="xMidYMid meet" version="1.0"><defs><g/></defs><g fill="#ffffff" fill-opacity="0.502"><g transform="translate(584.072079, 426.045877)"><g><path d="M 0.578125 -48.140625 L 0.578125 -60.171875 L 42.890625 -60.171875 L 42.890625 -48.140625 L 28.59375 -48.140625 L 28.59375 0 L 14.875 0 L 14.875 -48.140625 Z M 0.578125 -48.140625 "/></g></g></g><g fill="#ffffff" fill-opacity="0.502"><g transform="translate(623.889288, 426.045877)"><g><path d="M 27.34375 0 L 18.59375 0 L -1.453125 -37.421875 L 13.421875 -37.421875 L 22.53125 -17.21875 L 31.515625 -37.421875 L 40.40625 -37.421875 L 49.375 -17.21875 L 58.5 -37.421875 L 73.375 -37.421875 L 53.3125 0 L 44.5625 0 L 35.953125 -19.328125 Z M 27.34375 0 "/></g></g></g><g fill="#ffffff" fill-opacity="0.502"><g transform="translate(692.147582, 426.045877)"><g><path d="M 5.609375 -58.265625 C 7.117188 -59.773438 8.921875 -60.53125 11.015625 -60.53125 C 13.109375 -60.53125 14.90625 -59.773438 16.40625 -58.265625 C 17.914062 -56.765625 18.671875 -54.96875 18.671875 -52.875 C 18.671875 -50.789062 17.914062 -48.992188 16.40625 -47.484375 C 14.90625 -45.972656 13.109375 -45.21875 11.015625 -45.21875 C 8.921875 -45.21875 7.117188 -45.972656 5.609375 -47.484375 C 4.109375 -48.992188 3.359375 -50.789062 3.359375 -52.875 C 3.359375 -54.96875 4.109375 -56.765625 5.609375 -58.265625 Z M 4.375 -37.421875 L 4.375 0 L 17.28125 0 L 17.28125 -37.421875 Z M 4.375 -37.421875 "/></g></g></g><g fill="#ffffff" fill-opacity="0.502"><g transform="translate(710.524596, 426.045877)"><g><path d="M 47.703125 0 L 32.09375 0 L 23.84375 -10.578125 L 15.609375 0 L 0 0 L 15.96875 -19.546875 L 2.265625 -37.421875 L 17.359375 -37.421875 L 23.84375 -28.734375 L 30.34375 -37.421875 L 45.4375 -37.421875 L 31.734375 -19.546875 Z M 47.703125 0 "/></g></g></g><g fill="#ffffff" fill-opacity="0.502"><g transform="translate(754.571507, 426.045877)"><g><path d="M 6.5625 -37.421875 L 6.5625 -51.34375 L 19.46875 -51.34375 L 19.46875 -37.421875 L 27.34375 -37.421875 L 27.34375 -27.578125 L 19.46875 -27.578125 L 19.46875 -15.6875 C 19.46875 -12.226562 20.441406 -10.5 22.390625 -10.5 C 22.878906 -10.5 23.390625 -10.597656 23.921875 -10.796875 C 24.453125 -10.992188 24.863281 -11.1875 25.15625 -11.375 L 25.59375 -11.671875 L 28.8125 -1.234375 C 26.039062 0.316406 22.878906 1.09375 19.328125 1.09375 C 16.898438 1.09375 14.8125 0.671875 13.0625 -0.171875 C 11.3125 -1.023438 9.984375 -2.171875 9.078125 -3.609375 C 8.179688 -5.046875 7.535156 -6.550781 7.140625 -8.125 C 6.753906 -9.707031 6.5625 -11.398438 6.5625 -13.203125 L 6.5625 -27.578125 L 1.171875 -27.578125 L 1.171875 -37.421875 Z M 6.5625 -37.421875 "/></g></g></g><g fill="#ffffff" fill-opacity="0.502"><g transform="translate(779.730609, 426.045877)"><g><path d="M 42.234375 -16.921875 L 15.09375 -16.921875 C 15.09375 -14.296875 15.941406 -12.347656 17.640625 -11.078125 C 19.347656 -9.816406 21.195312 -9.1875 23.1875 -9.1875 C 25.28125 -9.1875 26.9375 -9.46875 28.15625 -10.03125 C 29.375 -10.59375 30.757812 -11.695312 32.3125 -13.34375 L 41.640625 -8.671875 C 37.753906 -2.160156 31.289062 1.09375 22.25 1.09375 C 16.601562 1.09375 11.757812 -0.835938 7.71875 -4.703125 C 3.6875 -8.566406 1.671875 -13.222656 1.671875 -18.671875 C 1.671875 -24.117188 3.6875 -28.785156 7.71875 -32.671875 C 11.757812 -36.566406 16.601562 -38.515625 22.25 -38.515625 C 28.175781 -38.515625 33 -36.800781 36.71875 -33.375 C 40.4375 -29.945312 42.296875 -25.046875 42.296875 -18.671875 C 42.296875 -17.796875 42.273438 -17.210938 42.234375 -16.921875 Z M 15.46875 -24.0625 L 29.6875 -24.0625 C 29.394531 -26.007812 28.628906 -27.503906 27.390625 -28.546875 C 26.148438 -29.597656 24.554688 -30.125 22.609375 -30.125 C 20.472656 -30.125 18.769531 -29.5625 17.5 -28.4375 C 16.238281 -27.320312 15.5625 -25.863281 15.46875 -24.0625 Z M 15.46875 -24.0625 "/></g></g></g><g fill="#ffffff" fill-opacity="0.502"><g transform="translate(820.058305, 426.045877)"><g><path d="M 4.375 0 L 4.375 -37.421875 L 17.28125 -37.421875 L 17.28125 -32.015625 L 17.4375 -32.015625 C 17.53125 -32.210938 17.6875 -32.457031 17.90625 -32.75 C 18.125 -33.039062 18.597656 -33.550781 19.328125 -34.28125 C 20.054688 -35.007812 20.832031 -35.664062 21.65625 -36.25 C 22.488281 -36.832031 23.5625 -37.351562 24.875 -37.8125 C 26.1875 -38.28125 27.523438 -38.515625 28.890625 -38.515625 C 30.296875 -38.515625 31.675781 -38.316406 33.03125 -37.921875 C 34.394531 -37.535156 35.394531 -37.148438 36.03125 -36.765625 L 37.046875 -36.171875 L 31.65625 -25.234375 C 30.050781 -26.597656 27.8125 -27.28125 24.9375 -27.28125 C 23.382812 -27.28125 22.046875 -26.9375 20.921875 -26.25 C 19.804688 -25.570312 19.019531 -24.742188 18.5625 -23.765625 C 18.101562 -22.796875 17.773438 -21.972656 17.578125 -21.296875 C 17.378906 -20.617188 17.28125 -20.082031 17.28125 -19.6875 L 17.28125 0 Z M 4.375 0 "/></g></g></g><g fill="#ffffff" fill-opacity="1"><g transform="translate(585.654303, 424.1603)"><g><path d="M 0.578125 -48.140625 L 0.578125 -60.171875 L 42.890625 -60.171875 L 42.890625 -48.140625 L 28.59375 -48.140625 L 28.59375 0 L 14.875 0 L 14.875 -48.140625 Z M 0.578125 -48.140625 "/></g></g></g><g fill="#ffffff" fill-opacity="1"><g transform="translate(625.471512, 424.1603)"><g><path d="M 27.34375 0 L 18.59375 0 L -1.453125 -37.421875 L 13.421875 -37.421875 L 22.53125 -17.21875 L 31.515625 -37.421875 L 40.40625 -37.421875 L 49.375 -17.21875 L 58.5 -37.421875 L 73.375 -37.421875 L 53.3125 0 L 44.5625 0 L 35.953125 -19.328125 Z M 27.34375 0 "/></g></g></g><g fill="#ffffff" fill-opacity="1"><g transform="translate(693.729806, 424.1603)"><g><path d="M 5.609375 -58.265625 C 7.117188 -59.773438 8.921875 -60.53125 11.015625 -60.53125 C 13.109375 -60.53125 14.90625 -59.773438 16.40625 -58.265625 C 17.914062 -56.765625 18.671875 -54.96875 18.671875 -52.875 C 18.671875 -50.789062 17.914062 -48.992188 16.40625 -47.484375 C 14.90625 -45.972656 13.109375 -45.21875 11.015625 -45.21875 C 8.921875 -45.21875 7.117188 -45.972656 5.609375 -47.484375 C 4.109375 -48.992188 3.359375 -50.789062 3.359375 -52.875 C 3.359375 -54.96875 4.109375 -56.765625 5.609375 -58.265625 Z M 4.375 -37.421875 L 4.375 0 L 17.28125 0 L 17.28125 -37.421875 Z M 4.375 -37.421875 "/></g></g></g><g fill="#ffffff" fill-opacity="1"><g transform="translate(712.10682, 424.1603)"><g><path d="M 47.703125 0 L 32.09375 0 L 23.84375 -10.578125 L 15.609375 0 L 0 0 L 15.96875 -19.546875 L 2.265625 -37.421875 L 17.359375 -37.421875 L 23.84375 -28.734375 L 30.34375 -37.421875 L 45.4375 -37.421875 L 31.734375 -19.546875 Z M 47.703125 0 "/></g></g></g><g fill="#ffffff" fill-opacity="1"><g transform="translate(756.153731, 424.1603)"><g><path d="M 6.5625 -37.421875 L 6.5625 -51.34375 L 19.46875 -51.34375 L 19.46875 -37.421875 L 27.34375 -37.421875 L 27.34375 -27.578125 L 19.46875 -27.578125 L 19.46875 -15.6875 C 19.46875 -12.226562 20.441406 -10.5 22.390625 -10.5 C 22.878906 -10.5 23.390625 -10.597656 23.921875 -10.796875 C 24.453125 -10.992188 24.863281 -11.1875 25.15625 -11.375 L 25.59375 -11.671875 L 28.8125 -1.234375 C 26.039062 0.316406 22.878906 1.09375 19.328125 1.09375 C 16.898438 1.09375 14.8125 0.671875 13.0625 -0.171875 C 11.3125 -1.023438 9.984375 -2.171875 9.078125 -3.609375 C 8.179688 -5.046875 7.535156 -6.550781 7.140625 -8.125 C 6.753906 -9.707031 6.5625 -11.398438 6.5625 -13.203125 L 6.5625 -27.578125 L 1.171875 -27.578125 L 1.171875 -37.421875 Z M 6.5625 -37.421875 "/></g></g></g><g fill="#ffffff" fill-opacity="1"><g transform="translate(781.312833, 424.1603)"><g><path d="M 42.234375 -16.921875 L 15.09375 -16.921875 C 15.09375 -14.296875 15.941406 -12.347656 17.640625 -11.078125 C 19.347656 -9.816406 21.195312 -9.1875 23.1875 -9.1875 C 25.28125 -9.1875 26.9375 -9.46875 28.15625 -10.03125 C 29.375 -10.59375 30.757812 -11.695312 32.3125 -13.34375 L 41.640625 -8.671875 C 37.753906 -2.160156 31.289062 1.09375 22.25 1.09375 C 16.601562 1.09375 11.757812 -0.835938 7.71875 -4.703125 C 3.6875 -8.566406 1.671875 -13.222656 1.671875 -18.671875 C 1.671875 -24.117188 3.6875 -28.785156 7.71875 -32.671875 C 11.757812 -36.566406 16.601562 -38.515625 22.25 -38.515625 C 28.175781 -38.515625 33 -36.800781 36.71875 -33.375 C 40.4375 -29.945312 42.296875 -25.046875 42.296875 -18.671875 C 42.296875 -17.796875 42.273438 -17.210938 42.234375 -16.921875 Z M 15.46875 -24.0625 L 29.6875 -24.0625 C 29.394531 -26.007812 28.628906 -27.503906 27.390625 -28.546875 C 26.148438 -29.597656 24.554688 -30.125 22.609375 -30.125 C 20.472656 -30.125 18.769531 -29.5625 17.5 -28.4375 C 16.238281 -27.320312 15.5625 -25.863281 15.46875 -24.0625 Z M 15.46875 -24.0625 "/></g></g></g><g fill="#ffffff" fill-opacity="1"><g transform="translate(821.640529, 424.1603)"><g><path d="M 4.375 0 L 4.375 -37.421875 L 17.28125 -37.421875 L 17.28125 -32.015625 L 17.4375 -32.015625 C 17.53125 -32.210938 17.6875 -32.457031 17.90625 -32.75 C 18.125 -33.039062 18.597656 -33.550781 19.328125 -34.28125 C 20.054688 -35.007812 20.832031 -35.664062 21.65625 -36.25 C 22.488281 -36.832031 23.5625 -37.351562 24.875 -37.8125 C 26.1875 -38.28125 27.523438 -38.515625 28.890625 -38.515625 C 30.296875 -38.515625 31.675781 -38.316406 33.03125 -37.921875 C 34.394531 -37.535156 35.394531 -37.148438 36.03125 -36.765625 L 37.046875 -36.171875 L 31.65625 -25.234375 C 30.050781 -26.597656 27.8125 -27.28125 24.9375 -27.28125 C 23.382812 -27.28125 22.046875 -26.9375 20.921875 -26.25 C 19.804688 -25.570312 19.019531 -24.742188 18.5625 -23.765625 C 18.101562 -22.796875 17.773438 -21.972656 17.578125 -21.296875 C 17.378906 -20.617188 17.28125 -20.082031 17.28125 -19.6875 L 17.28125 0 Z M 4.375 0 "/></g></g></g></svg>